<?xml version="1.0" encoding="utf-8"?>
<!-- Generator: Adobe Illustrator 23.0.1, SVG Export Plug-In . SVG Version: 6.00 Build 0)  -->
<!DOCTYPE svg PUBLIC "-//W3C//DTD SVG 1.1//EN" "http://www.w3.org/Graphics/SVG/1.1/DTD/svg11.dtd" [
	<!ENTITY ns_extend "http://ns.adobe.com/Extensibility/1.0/">
	<!ENTITY ns_ai "http://ns.adobe.com/AdobeIllustrator/10.0/">
	<!ENTITY ns_graphs "http://ns.adobe.com/Graphs/1.0/">
	<!ENTITY ns_vars "http://ns.adobe.com/Variables/1.0/">
	<!ENTITY ns_imrep "http://ns.adobe.com/ImageReplacement/1.0/">
	<!ENTITY ns_sfw "http://ns.adobe.com/SaveForWeb/1.0/">
	<!ENTITY ns_custom "http://ns.adobe.com/GenericCustomNamespace/1.0/">
	<!ENTITY ns_adobe_xpath "http://ns.adobe.com/XPath/1.0/">
]>
<svg class="logo" version="1.1" id="Livello_1" xmlns:x="&ns_extend;" xmlns:i="&ns_ai;" xmlns:graph="&ns_graphs;"
	 xmlns="http://www.w3.org/2000/svg" xmlns:xlink="http://www.w3.org/1999/xlink" x="0px" y="0px" viewBox="0 0 1000 1000"
	 style="enable-background:new 0 0 1000 1000;" xml:space="preserve">
<style type="text/css">
	.st0{fill:#E8D600;}
	.st1{fill:#008800;}
</style>
<metadata>Svg Vector Icons : http://www.onlinewebfonts.com/icon<sfw  xmlns="&ns_sfw;">
	<slices></slices>
	<sliceSourceBounds  bottomLeftOrigin="true" height="980.3" width="972.7" x="10" y="9.8"></sliceSourceBounds>
</sfw>
</metadata>
<path class="st0" d="M257.7,289.2c-1.5,11.6-3.4,30.2,10.9,55.6c17.8,30.7,40.5,41.3,47.9,46.5c-1.2-7.9,0.9-31.6-15.7-60.3
	c-14.4-25.8-30.1-37.3-39.4-46.2c-26.2-37.8-55.8-68.1-78.4-92.1L129.3,137c-0.1,0,19.3,22.4,51.5,57.6
	C202.8,219.4,232,250.9,257.7,289.2z M392.1,584.5c11.5,10.8,26,28.5,58.3,46.4c36.2,20.2,66.8,20.2,77.1,22.5
	C521.7,644,510,614.1,470,592c-32.8-18.1-57.3-14.6-72.4-12c-49.5-28.8-91.9-58.2-126.1-79.4c-48.9-30.1-80.6-45.5-80.5-45.5
	c-0.1,0.1,30.8,16.9,78.6,48.5C302.5,525.5,343.4,555.4,392.1,584.5z M421.3,427.1c-3.9,13.3-9.5,34.9,3.1,66.6
	c15.1,38.8,40.3,55,48,62.3c0.1-9.5,6.7-36.4-7.6-72.9c-12.6-32.4-29-48.5-38.4-60.4c-24.5-48.5-54.4-88.8-77.3-120.2l-54.8-73.9
	l51.8,75.5C368.4,336.6,397.4,378,421.3,427.1z M329.2,505.8c10.9,9.7,24.8,26,55.3,42.1c34.1,17.9,62.6,17.3,72.1,19.1
	c-5.6-8.6-17.3-36-54.9-55.8c-30.8-16.1-53.5-12.5-67.5-9.9c-46.6-25.9-86.6-52.6-118.7-71.9c-46.1-27.4-75.9-41.3-75.7-41.4
	c-0.1,0.1,28.9,15.5,73.9,44.3C244.6,452.3,283.3,479.5,329.2,505.8z M263.4,428.2c10.3,8.9,23.4,23.8,51.9,38
	c31.9,16.1,58.3,15,67.2,16.6c-5.4-7.8-16.7-32.7-51.7-50.4c-28.8-14.4-49.7-10.7-62.6-8.2c-43.6-23.3-81-47.6-111-65.1
	c-42.9-24.9-70.8-37.6-70.6-37.7c-0.1,0.2,27,14.1,69,40.3C184.4,379.8,220.5,404.6,263.4,428.2z M196.3,315.3
	c19.2,17.2,37.6,18.2,47.9,21.6c-2.2-8.4-0.3-29.1-22.2-48.6c-18.7-16.1-37.6-17.4-47.3-18.1c-77.1-66-145.4-108.5-161.2-118.6
	l-3.5-2.4c-0.6,0.5,74.7,50.2,163,127.5C175.8,286.3,180.9,302.1,196.3,315.3z M195,351.7c9.5,8.1,21.8,21.7,48.3,34.4
	c29.4,14.6,53.8,13.1,62,14.5c-5.2-7.1-16-29.4-48.3-45.5c-26.7-12.8-45.9-9.6-57.7-7.1c-40.4-21-74.9-43.3-102.8-58.8
	c-39.7-22.9-65.6-34-65.5-34.2c0,0.1,25.2,12.5,64,36.6C121.8,307.7,155.3,330.4,195,351.7z M341.7,355.9
	c-2.7,12.5-6.5,32.7,7.2,61.1c16.5,34.9,40.8,48.1,48.3,54.4c-0.6-8.7,3.5-34-11.9-66.7c-13.8-29-29.9-42.9-39.3-53.2
	c-25.6-43.1-55.3-78.5-78.3-106.1l-54.5-64.8l51.9,66.6C287.6,275.7,316.7,312.2,341.7,355.9z M644.7,430.1
	c-8.7,8.5-22.2,22.7-26.5,52.1c-5.4,35.7,6.4,58.3,9.1,67.1c4.2-7.1,20.9-24.9,26.1-58.6c4.4-29.9-1-49-2.9-62
	c2.4-47.1-2.9-90.2-6.8-123.6c-5.9-48.6-10.1-78.9-10.1-78.9l7,78.9C643.7,339.2,648,382.9,644.7,430.1z M617,350
	c-7.5,8.4-19.2,22.4-21.4,49.9c-2.7,33.4,9.7,53.6,12.8,61.6c3.4-6.9,17.7-24.5,20.3-55.9c2.2-28.1-3.9-45.4-6.5-57.2
	c-0.5-43.7-7.8-83.1-13.3-113.7l-13.5-72.3l10.8,72.5C610.8,266,617.1,306.1,617,350z M584.7,271.4c-6.4,8.2-16.2,21.8-16.5,47.3
	c-0.4,31,12.4,48.7,15.8,55.8c2.6-6.7,14.5-23.8,14.9-52.9c0.3-25.9-6.3-41.3-9.5-52.1c-3.2-40.1-12.1-75.9-19-103.7L554,100.3
	l13.8,66.1C573.9,194.7,582.1,231.1,584.7,271.4z M641.5,638.1c5-7.3,24.3-25,32.4-60.8c7-31.8,2.5-52.6,1.3-66.7
	c5.8-50.4,2.7-97.2,0.5-133.3c-3.4-52.7-6.3-85.4-6.3-85.4l3,85.3c1.1,36.7,3.1,83.9-3.6,134.3c-9.9,8.7-25.3,22.9-32,54
	C628.5,603.5,639.3,628.5,641.5,638.1z M480.4,219.8c4,9,8,23.1,22.7,41.2c16.1,20.5,34.1,27.4,39.7,31.1c-1.3-6.9-1-26.8-18.8-49.3
	c-14.8-18.2-29.7-22.2-39.1-24.3c-21.6-28.8-38.7-56.5-53.4-77.2c-20.5-29.9-35.3-46.6-35.1-46.7c-0.1,0.1,13.7,17.5,33.2,47.9
	C443.1,163.3,459.2,191,480.4,219.8z M494.2,193.5c7.9,19,20.7,25.8,27,31.6c1.3-6.8,10-21.4,1.1-43c-7.8-18-21.1-25.1-27.7-28.9
	c-32.4-74-66.6-127.7-74.4-140.4l-1.7-2.9c-0.6,0.2,36.2,61.5,72.5,147.5C489.6,165.4,487.7,178.7,494.2,193.5z M526.6,343.7
	c17.3,22.4,36.7,30.2,42.7,34.3c-1.1-7.5-0.4-29.4-19.5-54.1c-15.7-20.1-32.1-24.4-42.3-26.8c-23.3-31.6-41.6-61.7-57.1-84.5
	c-22.2-32.5-37.6-50.9-37.6-51c0,0.1,14.6,19.3,35.5,52.4c14.5,22.8,31.7,53,54.4,84.6C506.9,308.5,511.2,323.7,526.6,343.7z
	 M547.6,194.7c-5.2,8-13.1,21-11.8,44.3c2,28.4,14.6,43.7,18.1,50c1.9-6.2,11.8-22.8,10-49.4c-1.3-23.7-8.5-37.3-12.1-47
	c-5.5-36.3-16.2-68.4-24-93.3l-19.1-58.8c-0.1,0,6,22.9,16.8,59.4C532.7,125.4,542.7,158.1,547.6,194.7z M522.8,377.2
	c4.3,10.8,8.6,27.4,24.9,49.1c18.3,24.5,39.1,33.4,45.4,38c-1-8.2,0.2-32.1-19.9-59c-16.6-22.1-34.1-27-45.2-29.6
	c-24.5-34.5-43.9-67.3-60.2-92.1c-23.5-35.4-40.1-55.4-40-55.5c-0.1,0.1,15.3,20.9,37.7,57C480.6,309.9,498.8,342.7,522.8,377.2z
	 M284.9,593.1c-0.1,0.1,27.1,15.5,69.4,45.4c3,0.7,5.9,1.3,9,2C315.9,608.8,284.9,593.1,284.9,593.1z M623.3,652.7
	c-6.4-10-13-17.3-19.6-22.8c-2.2-6.1-4.5-11.9-7-16.8c14.4,14.7,27.9,21.9,32.8,26c0-0.7,0-1.5,0-2.5c1.8,5.8,3.4,11.7,5.2,17.7
	c2.7-0.3,5.4-0.4,8.1-0.6c-5-17-10.5-33.4-16.5-49c-2.1-8.4-5.5-17.6-11.1-27.4c-5.3-12.3-10.6-24.1-15.8-35.3
	c6.4,4.4,11.6,7.3,14.3,9.4c-0.8-8.9,1.3-34.8-19.8-64.2c-12.3-17.2-25.6-24.9-36.5-29.1l-33.3-64.8c-0.1,0,10.9,23.6,29.6,63.5
	c-2.8-0.9-5.4-1.7-7.7-2.4c-25.6-37.5-45.8-73.2-63.1-99.9c-24.6-38.2-42.1-59.9-42-60c-0.1,0.1,16.2,22.6,39.5,61.6
	c15.9,26.9,35,62.4,59.8,99.9c4.4,11.6,8.7,29.5,25.6,53.4c8,11.2,16.3,19.3,24,25.6c2.9,6.6,5.9,13.3,8.9,20.4
	c-14.4-14.4-28.8-19.1-38.6-21.9c-2.8-4.4-5.5-8.7-8.2-13c-16.5-35.4-34.2-66.7-49.1-92.8c-32.7-57.2-53.9-92.2-53.8-92.2l50,93.8
	c3.8,7.1,7.7,14.7,11.9,22.5c-5.5-9.4-10.7-18.2-15.6-26.3c-25.5-41.3-43.9-64.7-43.9-64.7c-0.1,0.1,17,24.3,41.1,66.4
	c14.2,24.8,30.5,56.5,50.9,90.6c9,19.9,17.5,41.1,25,63.4c-2,4.6-4.4,10.2-6.4,17c-22.5-38.6-40.8-74.3-57.2-101.8
	c-5.3-9.2-10.2-17.1-14.8-24.6c-20.6-42.4-44.2-78.9-63.3-108.2c-33.2-51.2-54.6-82.8-54.6-82.8l51.2,84.5
	c21.9,36.4,50.7,83,72.8,137.3c-5.1,14-12.7,36.8-1.6,71.8c13.5,42.7,39.2,61.9,47.1,70.4c0.7-9.6,8.7-35.4-0.7-72
	c5.9,11,12.1,22.4,18.8,34c-2.8,13.2-3.5,29.7,1.6,50.8c21.2-0.2,42.1-0.9,62.7-2.3C624,654.2,623.7,653.5,623.3,652.7z
	 M324.5,573.4c-51.5-33.1-85.2-49.8-85.1-49.9c-0.1,0.1,32.5,18.4,82.9,53.1c29.2,20.1,64.9,46.8,105.9,73.9
	c5.1,0.6,10.3,1,15.4,1.5C397.4,623,357.3,594.4,324.5,573.4z M696.1,593.9c9.7-53.7,9-104.1,9-142.9l-1.8-91.9
	c-0.1,0-0.9,35.1-1.7,91.7c-1.1,39.4-1.7,90.1-12.2,143.7c-11.2,8.6-28.4,22.8-38.2,55.4c-0.3,1.1-0.4,2-0.6,3.1
	c14.8-1.4,29.2-3.1,43.3-5C698.4,623.9,696.3,606.2,696.1,593.9z"/>
<g>
	<g>
		<path class="st1" d="M982.6,584.2L982.6,584.2c-2.7,72.3-27.3,150.8-65.2,223.1c0,0-90.3,182.9-373.8,182.9
			S168.2,808.9,168.2,808.9c-37.9-72.7-60.9-150.6-63.8-224.6h0.2c-0.1-2-0.2-3.9-0.2-5.8c0-34.8,21.5-67.3,58.5-95.4l39.5,25.3
			c-24.4,16.4-38.6,34.7-38.6,54.2c0,68.5,170,124,379.7,124s379.6-55.6,379.6-124c0-47.4-81.5-88.5-201.2-109.4l0.6-49.8
			c153.2,30,260.1,97,260.1,175.2C982.8,580.3,982.7,582.2,982.6,584.2z"/>
	</g>
</g>
</svg>
